PathFileType	4	(X/Y/Z)	C:/Users/beibeiliu/ov580/test_trc/User1\sequence.22_training_dense_left.trc
DataRate	CameraRate	NumFrames	NumMarkers	Units	OrigDataRate	OrigDataStartFrame	OrigNumFrames
120	120	14	19	mm	120	171	273
Frame#	Time	ThumbCMC			ThumbMCP			ThumbIP			ThumbTip			IndexMCP			IndexPIP			IndexTip			MiddleMCP			MiddlePIP			MiddleTip			RingMCP			RingPIP			RingTip			PinkyMCP			PinkyPIP			PinkyTip			BackHand1			BackHand2			BackHand3	
		X0	Y0	Z0	X1	Y1	Z1	X2	Y2	Z2	X3	Y3	Z3	X4	Y4	Z4	X5	Y5	Z5	X6	Y6	Z6	X7	Y7	Z7	X8	Y8	Z8	X9	Y9	Z9	X10	Y10	Z10	X11	Y11	Z11	X12	Y12	Z12	X13	Y13	Z13	X14	Y14	Z14	X15	Y15	Z15	X16	Y16	Z16	X17	Y17	Z17	X18	Y18	Z18	
170	1.41667	-141.133	31.4848	32.2403	-124.073	15.3269	8.08276	-111.41	14.145	-12.7328	-95.9606	9.16058	-34.1286	-144.033	71.5347	-44.879	-141.51	67.6228	-70.1698	-140.09	55.0158	-96.3621	-163.885	45.1948	-54.9136	-149.358	12.6147	-48.5798	-159.226	13.9276	-11.879	-181.367	26.7015	-49.8116	-169.318	2.11126	-30.3741	-174.865	13.9027	-2.6664	-202.603	21.7378	-40.5568	-185.947	3.38886	-25.6186	-187.161	21.6178	3.85697	-205.851	56.8083	2.62083	-212.684	49.4075	37.2867	-175.015	61.7893	29.9583	
171	1.425	-142.432	30.9206	33.7402	-129.249	16.1606	5.16191	-116.237	15.8113	-19.9004	-103.813	9.4561	-35.5827	-144.017	70.0154	-46.0029	-143.929	63.4405	-70.8317	-140.779	49.8175	-97.1707	-164.599	45.6809	-54.1293	-153.182	14.565	-51.3742	-157.877	15.6455	-9.53378	-181.283	30.6047	-48.4917	-171.801	2.67959	-35.3079	-176.966	16.5963	-0.701962	-204.053	22.8086	-39.8951	-186.429	2.0734	-23.7792	-186.5	18.6372	2.0056	-206.151	58.2015	-0.711247	-212.524	48.901	39.7618	-172.199	60.4048	30.5082	
172	1.43333	-143.831	31.4328	32.326	-125.95	15.8698	5.48223	-116.654	16.9871	-21.4126	-102.031	8.23985	-38.912	-146.513	69.6993	-42.6482	-145.127	62.5329	-71.7287	-139.274	48.3468	-94.4186	-168.528	45.6259	-52.4293	-153.477	13.7349	-49.4868	-159.857	18.164	-8.12516	-180.686	27.7949	-49.9531	-171.356	2.35938	-31.3118	-179.875	15.2824	-2.57749	-206.622	19.4035	-40.1097	-188.11	1.39259	-21.7418	-190.862	21.2047	6.37682	-203.687	58.4538	0.673724	-214.032	48.7591	35.9634	-178.963	60.0561	29.1214	
173	1.44167	-147.605	33.7686	28.9857	-131.299	19.2546	-0.0365371	-114.986	17.2126	-24.4695	-106.515	10.926	-42.1284	-151.736	69.1993	-45.1924	-145.5	60.6971	-76.8726	-145.501	44.0613	-96.8424	-170.223	44.7033	-53.6316	-155.512	12.046	-47.5398	-159.627	19.5706	-8.04962	-184.84	29.5985	-48.1011	-175.29	0.684512	-33.4816	-176.346	17.0823	-1.66359	-204.654	18.0216	-41.3872	-188.264	1.94238	-21.8465	-192.348	20.1731	5.4636	-206.577	58.1084	2.89884	-212.991	47.2427	33.4478	-176.055	63.0941	26.4368	
174	1.45	-148.208	34.2833	26.5216	-133.43	21.2966	-2.25462	-116.544	18.1723	-26.4599	-110.603	13.4503	-45.4773	-151.52	70.3183	-45.5541	-150.428	58.3125	-76.9156	-144.819	40.2174	-99.4622	-172.533	43.6701	-55.1865	-158.828	11.4142	-46.8239	-163.276	16.6967	-11.3519	-189.186	24.707	-50.2575	-171.791	3.03732	-31.6471	-179.42	16.6261	-2.47894	-207.097	15.376	-41.1391	-188.195	1.57571	-23.6408	-192.475	19.5446	3.44367	-212.761	56.5982	-0.962631	-216.828	46.1751	34.5033	-179.753	61.6627	26.4242	
175	1.45833	-150.076	34.9266	28.3092	-131.032	22.1307	-2.97789	-122.125	19.7149	-27.8375	-107.348	12.7726	-45.8575	-159.912	67.8463	-49.7671	-151.948	60.5202	-75.2848	-146.154	40.1063	-98.5113	-176.464	42.0034	-57.3501	-162.269	11.6789	-51.575	-164.42	20.0206	-9.81703	-190.401	24.4045	-49.8058	-172.234	2.93509	-31.694	-178.215	14.6681	-3.61769	-209.008	11.4932	-41.3049	-190.276	-0.770672	-23.1602	-191.727	19.1565	3.83678	-213.794	51.9466	3.02626	-216.098	44.1908	34.6765	-183.065	60.7867	26.2477	
176	1.46667	-150.853	38.435	22.7626	-132.985	24.5027	-4.71002	-123.217	21.9336	-28.6759	-110.85	16.7821	-47.455	-165.543	66.4766	-51.5051	-159.525	53.0378	-80.3005	-152.228	36.3942	-97.8608	-180.406	40.0197	-57.8356	-161.753	13.2195	-52.0793	-163.349	20.9436	-9.79991	-193.898	21.082	-49.3831	-176.219	-1.15501	-32.6864	-180.423	17.5902	-1.47416	-207.483	11.1625	-40.1798	-190.425	-3.67032	-19.0445	-194.094	17.2286	4.46863	-219.273	48.4497	1.39585	-220.316	40.8444	34.7545	-186.559	62.585	22.4956	
177	1.475	-150.257	41.8279	23.8492	-134.052	27.7894	-6.1095	-125.984	25.7676	-28.7052	-115.782	21.7683	-53.0232	-168.875	66.665	-56.5317	-165.036	52.8489	-80.6295	-153.707	31.8045	-100.287	-185.405	40.0949	-56.4789	-163.317	10.793	-49.5275	-166.497	18.8978	-13.0741	-193.002	20.3013	-50.5374	-175.971	-1.29759	-33.936	-181.505	16.3285	-1.60522	-214.521	6.36165	-38.2522	-190.583	-6.55573	-21.5604	-195.748	15.5173	4.8948	-222.97	46.0066	-1.63936	-223.695	35.0412	37.2666	-193.155	60.4974	23.8338	
178	1.48333	-152.515	43.5969	22.5095	-140.891	30.7911	-7.68986	-125.615	29.3424	-33.2678	-116.35	22.6578	-53.0687	-175.242	65.1033	-53.8154	-172.356	50.167	-81.2728	-157.508	29.2913	-101.632	-184.485	37.7701	-60.1522	-162.811	12.2601	-50.2259	-165.666	20.1505	-13.2439	-196.84	18.5955	-50.1032	-176.727	-3.90209	-31.5399	-179.936	14.2158	-2.83291	-212.334	0.0212221	-38.4582	-189.574	-6.3074	-23.9835	-193.171	14.6372	2.25746	-226.57	39.9016	-0.252716	-222.697	36.7376	35.704	-194.726	60.749	23.3691	
179	1.49167	-155.463	44.6274	23.4274	-139.437	32.3955	-4.11794	-131.37	30.0545	-33.7494	-122.636	23.6357	-52.5249	-181.54	60.9797	-59.1822	-174.397	51.4013	-80.4872	-166.341	26.601	-97.8498	-190.107	36.6785	-58.0808	-166.059	12.0385	-54.3716	-167.439	17.4167	-14.5783	-202.046	11.7068	-48.364	-175.521	-3.04441	-34.9711	-181.412	12.0212	-2.67391	-211.758	-4.78483	-37.2259	-187.247	-7.73711	-20.8671	-193.238	10.5533	3.70602	-228.231	35.1988	2.92764	-222.077	31.31	38.7541	-199.305	56.9611	24.042	
180	1.5	-158.975	46.3132	20.9903	-140.458	34.3627	-5.11125	-130.347	33.1487	-37.2987	-124.394	25.7071	-58.5975	-188.749	58.4803	-55.0359	-179.229	44.1768	-82.7262	-164.806	26.9081	-99.7881	-190.475	32.53	-59.8949	-164.756	10.6888	-51.5002	-167.108	18.5835	-13.1214	-199.665	7.25043	-50.284	-174.073	-3.10747	-36.2516	-181.522	10.0652	-2.35325	-209.411	-4.28808	-36.6226	-186.44	-9.9472	-21.5506	-191.438	8.30111	4.64755	-227.319	36.1178	1.71453	-227.582	30.3696	36.0679	-202.81	53.0035	22.2307	
181	1.50833	-162.256	46.838	19.6022	-139.753	38.0155	-9.80093	-130.872	35.5495	-33.4639	-122.391	30.0538	-56.5947	-190.056	57.8815	-60.1702	-183.56	44.8547	-80.7111	-165.646	25.6165	-101.873	-195.331	29.7096	-58.588	-166.926	11.6102	-54.9746	-168.944	17.7086	-11.9508	-203.947	6.58384	-46.8367	-173.485	-4.7097	-30.3088	-180.755	8.29416	-3.1162	-214.123	-9.96057	-33.5874	-185.629	-8.99679	-19.5017	-193.005	7.59053	7.06585	-229.022	32.4618	2.82803	-225.913	25.2372	40.1395	-206.651	53.4033	18.4693	
182	1.51667	-163.001	46.6873	22.9817	-141.49	38.8325	-8.09861	-130.958	37.5106	-34.6559	-120.486	33.1227	-52.1022	-193.804	56.8085	-56.9536	-187.112	44.6954	-81.353	-172.939	24.7595	-103.396	-196.018	28.0483	-58.7125	-166.516	7.20588	-49.9984	-167.794	14.5764	-14.974	-198.041	6.69039	-47.6901	-173.725	-5.53229	-29.844	-184.839	8.70987	0.912746	-210.16	-11.8966	-33.3996	-186.035	-17.2681	-17.7874	-195.004	5.35578	8.11842	-230.452	27.0019	4.02397	-225.489	25.3489	41.6337	-206.018	52.2753	21.3975	
183	1.525	-165.541	48.0912	21.0196	-141.973	40.205	-7.11714	-131.569	40.0755	-31.9619	-124.357	34.7187	-53.6981	-198.413	52.0385	-58.7749	-188.681	42.2835	-86.8048	-179.098	26.4089	-104.044	-200.526	23.9231	-56.6808	-167.086	5.32506	-49.959	-168.931	16.6853	-12.8097	-201.661	2.76197	-45.8424	-174.657	-9.43207	-28.0472	-182.011	7.20751	-1.1448	-212.347	-14.6474	-31.4527	-185.422	-13.4201	-16.9803	-189.926	5.96745	7.3488	-228.826	27.5238	6.46986	-228.492	22.8422	41.6058	-207.516	50.9828	22.9559	
